<?xml version="1.0" standalone="no"?>
<!DOCTYPE svg PUBLIC "-//W3C//DTD SVG 20010904//EN"
 "http://www.w3.org/TR/2001/REC-SVG-20010904/DTD/svg10.dtd">
<svg version="1.0" xmlns="http://www.w3.org/2000/svg"
 width="2334.000000pt" height="2332.000000pt" viewBox="0 0 2334.000000 2332.000000"
 preserveAspectRatio="xMidYMid meet">
<metadata>
Created by potrace 1.15, written by Peter Selinger 2001-2017
</metadata>
<g transform="translate(0.000000,2332.000000) scale(0.100000,-0.100000)"
fill="#000000" stroke="none">
<path d="M0 11660 l0 -11660 11670 0 11670 0 0 11660 0 11660 -11670 0 -11670
0 0 -11660z m12080 11120 c448 -15 1060 -57 1140 -79 19 -5 71 -12 115 -16 44
-3 91 -8 105 -10 53 -9 307 -55 345 -64 51 -11 227 -50 280 -61 22 -5 53 -13
68 -19 16 -6 48 -11 72 -11 24 0 56 -5 72 -11 38 -14 167 -49 223 -60 114 -21
189 -40 216 -54 16 -8 39 -15 52 -15 12 0 39 -7 59 -15 19 -8 52 -15 72 -15
20 0 46 -7 58 -15 12 -8 43 -18 70 -22 26 -3 68 -17 93 -29 52 -26 123 -52
230 -83 41 -12 89 -28 105 -35 17 -8 45 -17 62 -20 18 -4 35 -12 38 -17 4 -5
16 -9 28 -9 13 0 31 -6 42 -13 11 -8 58 -26 105 -41 85 -27 132 -45 180 -70
14 -7 38 -16 55 -20 16 -4 52 -18 80 -31 27 -12 95 -42 150 -65 55 -23 143
-62 195 -87 52 -25 133 -63 180 -85 47 -22 99 -47 115 -55 17 -9 44 -22 60
-30 17 -8 50 -26 75 -39 25 -14 65 -34 90 -46 86 -40 205 -102 245 -127 44
-28 43 -27 170 -96 50 -26 104 -58 121 -71 17 -13 34 -24 38 -24 3 0 25 -14
48 -30 23 -17 61 -36 85 -42 24 -6 43 -14 43 -19 0 -15 43 -49 62 -49 9 0 32
-13 50 -28 18 -15 67 -49 108 -74 41 -26 84 -55 95 -65 11 -10 38 -30 60 -43
22 -13 70 -46 106 -72 36 -26 71 -48 78 -48 8 0 30 -17 50 -37 20 -21 57 -51
81 -68 25 -16 84 -60 131 -96 47 -37 103 -78 125 -92 21 -14 58 -43 80 -64 23
-21 57 -49 75 -62 62 -45 317 -264 504 -432 22 -20 72 -64 110 -99 121 -108
354 -340 468 -465 60 -66 135 -147 165 -180 31 -33 76 -85 101 -115 24 -30 58
-69 75 -86 17 -16 54 -58 81 -93 76 -95 123 -152 160 -196 87 -102 255 -326
255 -340 0 -7 7 -19 17 -26 18 -16 78 -94 142 -189 24 -36 59 -84 77 -107 19
-22 44 -59 56 -81 28 -48 100 -157 130 -196 13 -16 45 -66 71 -110 27 -45 73
-119 103 -166 29 -47 65 -107 80 -135 14 -27 36 -64 49 -80 12 -17 48 -80 79
-140 32 -61 77 -146 101 -190 45 -82 193 -376 239 -475 14 -30 41 -82 59 -115
18 -33 42 -82 51 -110 10 -27 29 -74 42 -103 13 -28 35 -80 49 -115 14 -34 30
-70 35 -79 5 -9 27 -61 49 -115 85 -214 105 -259 118 -278 7 -11 13 -27 13
-36 0 -23 29 -118 45 -149 20 -38 55 -142 55 -163 0 -11 16 -54 35 -97 19 -43
35 -86 35 -96 0 -11 13 -59 29 -109 16 -49 40 -128 52 -175 12 -47 26 -90 30
-95 4 -6 19 -57 33 -115 15 -58 32 -127 40 -155 8 -27 21 -81 29 -120 8 -38
29 -128 46 -200 17 -71 40 -186 51 -255 12 -69 27 -146 35 -173 8 -26 17 -75
21 -110 4 -34 13 -80 21 -102 22 -62 64 -324 62 -380 -2 -27 2 -72 9 -100 13
-56 27 -162 24 -185 0 -8 3 -29 9 -46 5 -17 11 -98 13 -180 2 -82 9 -169 14
-194 7 -29 9 -237 7 -600 -4 -583 -9 -788 -25 -907 -5 -40 -7 -79 -4 -88 3 -8
-1 -45 -10 -83 -18 -75 -38 -326 -29 -360 3 -12 -2 -33 -11 -47 -9 -14 -16
-45 -16 -75 0 -28 -5 -61 -12 -73 -6 -12 -12 -40 -13 -62 -3 -58 -15 -144 -26
-190 -5 -22 -14 -85 -19 -140 -10 -107 -30 -218 -48 -275 -6 -19 -19 -71 -28
-115 -10 -44 -24 -93 -32 -110 -8 -16 -21 -70 -28 -120 -7 -49 -20 -117 -29
-150 -9 -33 -25 -98 -35 -145 -20 -91 -30 -122 -60 -185 -11 -22 -24 -65 -30
-95 -6 -30 -25 -85 -41 -122 -17 -37 -35 -95 -41 -130 -6 -35 -17 -70 -25 -79
-7 -8 -26 -56 -43 -105 -27 -84 -64 -186 -94 -264 -8 -19 -28 -71 -44 -115
-17 -44 -39 -98 -50 -120 -11 -22 -30 -70 -42 -105 -22 -65 -44 -116 -105
-245 -18 -38 -38 -86 -45 -105 -10 -29 -102 -221 -130 -270 -4 -8 -29 -60 -55
-115 -25 -55 -53 -107 -60 -115 -7 -8 -23 -40 -34 -70 -11 -30 -36 -80 -56
-110 -19 -30 -35 -64 -35 -77 0 -13 -13 -32 -33 -47 -21 -16 -38 -41 -45 -65
-7 -21 -22 -53 -35 -72 -12 -19 -31 -54 -42 -79 -11 -25 -33 -64 -50 -87 -16
-23 -59 -90 -95 -149 -36 -59 -98 -156 -137 -216 -40 -61 -73 -111 -73 -113 0
-5 -119 -180 -163 -240 -20 -27 -54 -75 -74 -105 -57 -83 -159 -219 -206 -274
-23 -27 -50 -62 -59 -77 -9 -15 -21 -30 -27 -34 -7 -3 -27 -37 -45 -74 -21
-41 -44 -71 -59 -78 -13 -6 -40 -30 -58 -53 -19 -23 -67 -80 -106 -125 -40
-46 -73 -86 -73 -90 0 -3 -27 -33 -59 -67 -33 -33 -65 -74 -72 -89 -6 -16 -16
-29 -22 -29 -5 0 -148 -139 -316 -308 -324 -326 -497 -490 -676 -642 -60 -51
-114 -98 -120 -105 -5 -6 -20 -17 -31 -23 -23 -12 -51 -34 -123 -98 -25 -22
-83 -69 -129 -105 -46 -35 -100 -77 -121 -94 -106 -84 -158 -122 -195 -144
-22 -13 -74 -51 -114 -83 -40 -32 -89 -68 -110 -79 -20 -12 -69 -45 -108 -75
-39 -30 -77 -54 -83 -54 -11 0 -102 -56 -196 -120 -22 -15 -60 -37 -85 -50
-25 -12 -54 -30 -65 -39 -23 -20 -89 -61 -180 -111 -35 -19 -101 -58 -147 -86
-45 -28 -103 -62 -128 -74 -25 -13 -59 -33 -76 -46 -17 -13 -48 -30 -70 -38
-21 -7 -80 -39 -131 -69 -112 -69 -238 -129 -318 -152 -33 -9 -67 -23 -75 -30
-8 -8 -38 -23 -67 -34 -28 -11 -91 -41 -140 -67 -48 -26 -99 -50 -113 -55 -68
-22 -120 -43 -174 -70 -32 -16 -88 -36 -125 -45 -36 -9 -84 -28 -106 -42 -22
-14 -65 -31 -95 -38 -30 -7 -93 -26 -140 -44 -47 -17 -100 -36 -119 -42 -18
-5 -50 -18 -70 -28 -20 -10 -58 -22 -86 -25 -27 -4 -70 -17 -95 -29 -25 -13
-73 -26 -107 -29 -34 -4 -76 -13 -95 -21 -73 -33 -383 -126 -419 -126 -21 0
-53 -6 -71 -14 -58 -24 -170 -54 -308 -81 -74 -15 -141 -30 -150 -35 -8 -4
-49 -13 -90 -20 -75 -12 -208 -38 -331 -65 -37 -8 -83 -15 -104 -15 -20 0 -45
-5 -57 -11 -11 -6 -106 -17 -211 -25 -106 -8 -219 -19 -253 -24 -33 -6 -107
-10 -164 -10 -57 0 -129 -4 -159 -10 -73 -12 -448 -41 -609 -46 -224 -7 -582
-4 -752 7 -91 5 -250 14 -355 19 -104 5 -226 14 -270 19 -44 6 -127 15 -185
21 -58 5 -114 12 -125 15 -11 2 -60 9 -110 15 -49 6 -148 22 -220 36 -71 14
-155 30 -185 34 -76 12 -246 40 -300 50 -25 5 -81 18 -125 29 -44 12 -102 21
-129 21 -29 0 -56 6 -66 15 -8 8 -74 27 -145 43 -195 44 -336 81 -475 123 -69
21 -143 41 -165 45 -22 4 -51 12 -65 19 -14 7 -65 24 -115 38 -49 14 -115 36
-146 50 -31 14 -78 28 -105 32 -27 4 -74 20 -104 36 -30 16 -63 29 -72 29 -10
0 -48 14 -84 31 -37 18 -81 35 -98 39 -35 9 -79 26 -246 95 -63 26 -133 54
-155 63 -22 9 -60 28 -85 42 -25 14 -67 34 -95 44 -27 11 -150 68 -273 127
-123 60 -227 109 -231 109 -4 0 -35 18 -69 40 -33 22 -65 40 -69 40 -5 0 -32
15 -60 34 -29 19 -62 38 -74 41 -12 4 -44 20 -71 36 -27 16 -53 29 -57 29 -4
0 -26 12 -47 28 -21 15 -61 38 -89 51 -27 13 -66 33 -85 45 -46 29 -137 84
-175 106 -16 9 -64 39 -105 67 -41 28 -86 56 -100 63 -14 7 -68 43 -120 80
-52 38 -117 80 -145 96 -27 15 -83 54 -125 87 -41 32 -84 63 -95 67 -11 4 -32
19 -46 32 -14 13 -82 69 -150 124 -68 54 -134 111 -146 125 -13 15 -36 32 -53
39 -16 7 -30 16 -30 21 0 4 -28 27 -62 50 -35 23 -83 61 -108 83 -67 60 -229
190 -243 195 -20 7 -189 184 -198 208 -4 12 -27 31 -51 42 -29 14 -114 93
-262 243 -324 329 -356 363 -356 376 0 7 -19 26 -42 43 -24 16 -68 61 -98 99
-30 38 -80 99 -110 135 -30 37 -83 101 -118 143 -34 43 -68 83 -75 91 -6 8
-25 34 -42 57 -16 23 -78 103 -137 177 -99 125 -121 156 -188 258 -69 105
-169 250 -207 301 -24 31 -43 61 -43 66 0 5 -9 17 -20 27 -11 10 -20 22 -20
27 0 5 -19 39 -43 76 -83 128 -107 167 -133 217 -15 28 -46 80 -69 116 -41 62
-91 150 -130 229 -25 49 -52 102 -102 195 -23 44 -52 100 -63 125 -11 25 -25
52 -30 60 -6 8 -19 35 -31 60 -12 25 -48 101 -81 170 -33 69 -71 148 -83 175
-81 176 -95 208 -95 216 0 6 -16 40 -35 78 -19 37 -35 74 -35 82 0 9 -11 38
-25 65 -14 27 -30 69 -35 92 -6 24 -23 72 -39 105 -15 34 -36 87 -46 117 -9
30 -25 78 -36 105 -10 28 -34 97 -53 155 -19 58 -42 122 -50 142 -9 21 -16 49
-16 63 0 14 -13 51 -29 83 -16 31 -38 106 -50 166 -13 60 -29 123 -36 140 -7
17 -20 67 -30 111 -9 44 -24 105 -35 135 -10 30 -25 89 -34 130 -9 41 -32 141
-51 222 -19 81 -35 162 -35 180 0 18 -7 58 -16 88 -35 121 -64 292 -84 497 -5
51 -12 97 -15 103 -6 9 -25 206 -45 460 -5 58 -13 121 -20 140 -6 19 -18 94
-26 165 -35 294 -21 1458 20 1690 3 17 10 80 15 140 6 61 17 189 26 285 9 96
22 198 30 225 7 28 18 84 24 125 22 162 34 229 57 325 13 55 28 134 34 175 6
41 17 93 24 115 15 43 36 131 62 265 9 47 24 112 34 145 25 82 69 238 85 305
8 30 21 82 29 115 9 33 20 69 25 80 11 23 97 286 137 420 15 50 38 114 51 144
12 29 23 61 23 70 0 9 14 43 30 75 17 32 30 63 30 68 0 5 13 37 29 71 15 34
34 80 40 102 7 22 16 49 21 60 21 50 54 125 77 174 13 29 40 88 58 130 18 42
51 112 73 156 23 44 50 103 62 130 18 42 110 227 164 330 9 17 16 34 16 39 0
5 6 17 14 25 8 9 30 45 49 81 55 104 117 213 135 241 26 41 98 162 106 179 3
8 24 42 45 75 22 33 58 92 80 130 43 76 151 244 201 312 17 24 34 51 37 60 4
10 34 54 68 98 33 44 72 98 85 120 13 22 35 51 47 65 13 14 23 28 23 32 0 5
15 25 33 45 18 21 40 49 49 63 8 14 43 58 77 98 33 40 61 76 61 80 0 4 11 19
25 34 30 32 100 119 139 173 16 22 42 51 56 65 15 14 47 52 71 85 24 33 54 71
66 85 12 14 49 58 83 98 81 98 135 156 195 211 27 25 112 108 190 185 77 76
170 158 207 183 38 25 68 49 68 54 0 5 5 9 11 9 11 0 59 46 59 56 0 11 67 89
115 134 28 26 100 89 160 141 61 51 115 98 120 105 6 6 28 25 51 41 23 16 72
54 110 86 160 132 253 205 319 252 39 27 72 52 75 56 10 13 97 76 200 143 58
38 123 82 145 97 22 16 56 38 75 49 19 11 55 36 80 55 50 38 406 256 498 304
15 8 40 25 55 38 16 12 32 23 36 23 10 0 175 92 196 110 15 13 153 85 260 136
28 14 57 29 65 34 56 35 390 190 411 190 8 0 19 4 24 9 6 5 39 20 75 34 36 14
97 38 135 52 39 15 77 34 86 41 8 8 32 14 51 14 20 0 41 6 47 14 7 8 27 18 44
21 31 7 147 61 235 110 23 14 63 31 90 39 26 8 73 26 105 40 32 14 65 26 73
26 9 0 30 6 47 14 82 34 144 56 164 56 11 0 53 13 93 29 39 16 90 33 113 36
22 4 72 20 111 35 39 15 107 35 151 45 44 9 105 25 135 35 30 10 85 27 121 39
37 11 78 21 92 21 14 0 36 4 49 9 13 5 66 19 118 30 52 11 138 30 190 41 52
11 113 24 135 30 22 5 90 16 150 25 61 9 139 22 175 30 85 19 344 55 393 55
21 0 82 9 135 19 118 23 281 41 462 51 74 4 263 15 420 24 396 22 426 23 500
19 36 -2 193 -8 350 -13z"/>
<path d="M11095 22605 c-88 -6 -167 -15 -175 -20 -8 -5 -50 -8 -93 -6 -76 2
-122 -2 -377 -35 -63 -8 -158 -19 -210 -24 -52 -5 -131 -17 -175 -25 -44 -9
-134 -23 -200 -30 -66 -8 -169 -26 -230 -40 -60 -13 -150 -32 -200 -41 -201
-35 -205 -36 -335 -77 -36 -11 -70 -24 -77 -29 -6 -5 -37 -10 -70 -12 -32 -2
-85 -13 -118 -25 -32 -11 -71 -21 -85 -21 -14 0 -63 -13 -110 -29 -47 -16
-139 -46 -205 -66 -66 -20 -138 -43 -160 -51 -23 -7 -47 -14 -55 -14 -9 0 -31
-8 -50 -18 -19 -11 -73 -29 -120 -41 -47 -13 -107 -33 -135 -46 -27 -12 -75
-30 -105 -39 -30 -10 -73 -26 -95 -36 -22 -9 -56 -23 -75 -30 -31 -11 -95 -37
-185 -75 -16 -7 -41 -16 -55 -20 -14 -4 -30 -11 -35 -15 -10 -8 -53 -25 -145
-56 -40 -14 -312 -142 -350 -165 -8 -5 -35 -18 -60 -30 -54 -24 -49 -22 -275
-138 -99 -52 -184 -97 -190 -101 -5 -4 -37 -22 -70 -40 -111 -61 -178 -100
-252 -147 -29 -18 -56 -33 -61 -33 -5 0 -38 -20 -75 -45 -37 -25 -82 -51 -100
-59 -17 -7 -43 -25 -56 -40 -14 -14 -30 -26 -37 -26 -12 0 -94 -51 -252 -159
-46 -31 -98 -65 -115 -75 -18 -11 -55 -38 -84 -60 -28 -23 -74 -57 -102 -76
-89 -61 -154 -111 -216 -164 -33 -29 -76 -63 -95 -76 -40 -27 -77 -57 -236
-192 -29 -23 -80 -67 -115 -96 -312 -258 -702 -626 -765 -721 -13 -21 -35 -43
-47 -50 -12 -7 -28 -25 -35 -41 -8 -16 -29 -39 -48 -50 -18 -12 -37 -27 -41
-35 -5 -7 -38 -46 -75 -86 -36 -41 -92 -105 -125 -143 -32 -39 -83 -97 -113
-131 -30 -34 -74 -83 -97 -111 -23 -27 -58 -68 -78 -90 -19 -23 -35 -44 -35
-48 0 -11 -71 -110 -109 -151 -21 -22 -50 -58 -67 -79 -16 -22 -46 -61 -67
-88 -20 -27 -49 -67 -63 -91 -15 -23 -41 -58 -59 -77 -17 -19 -43 -53 -56 -75
-13 -22 -57 -87 -97 -145 -41 -58 -77 -112 -80 -120 -3 -8 -25 -44 -49 -79
-24 -35 -47 -77 -50 -93 -3 -16 -13 -34 -22 -41 -10 -7 -38 -45 -64 -84 -25
-40 -58 -82 -72 -95 -14 -12 -25 -32 -25 -45 0 -13 -4 -31 -10 -41 -5 -9 -19
-41 -30 -71 -12 -30 -34 -71 -51 -92 -16 -20 -29 -40 -29 -45 0 -4 -9 -17 -19
-28 -23 -26 -111 -198 -111 -218 0 -8 -15 -35 -34 -60 -42 -55 -66 -110 -66
-154 0 -18 -4 -35 -9 -39 -5 -3 -17 -27 -27 -53 -10 -26 -20 -49 -23 -52 -4
-3 -16 -25 -28 -50 -27 -54 -52 -96 -76 -130 -9 -13 -17 -35 -17 -48 0 -28
-13 -55 -52 -104 -16 -20 -37 -61 -47 -91 -11 -30 -28 -72 -40 -93 -31 -59
-51 -106 -51 -120 0 -6 -13 -39 -30 -72 -16 -34 -30 -67 -30 -74 0 -8 -9 -32
-20 -53 -28 -55 -80 -206 -80 -233 0 -13 -9 -35 -19 -50 -10 -15 -27 -52 -36
-82 -10 -30 -24 -71 -31 -90 -7 -19 -25 -84 -40 -145 -14 -60 -31 -118 -36
-128 -5 -11 -20 -60 -33 -110 -13 -51 -29 -110 -35 -132 -7 -22 -18 -62 -25
-90 -25 -93 -57 -200 -71 -240 -8 -23 -14 -50 -14 -60 0 -19 -12 -79 -50 -255
-11 -47 -21 -101 -24 -120 -2 -19 -9 -55 -15 -80 -5 -25 -15 -90 -21 -145 -7
-55 -17 -116 -25 -135 -13 -37 -24 -101 -51 -295 -8 -66 -20 -140 -26 -165 -6
-25 -10 -78 -9 -118 2 -40 -2 -87 -8 -105 -16 -52 -31 -218 -36 -422 -3 -104
-8 -206 -11 -225 -10 -61 -13 -793 -4 -840 5 -25 11 -127 13 -227 3 -101 9
-189 14 -195 6 -7 11 -71 11 -143 0 -71 8 -177 16 -235 8 -58 29 -204 45 -325
17 -121 37 -256 45 -300 8 -44 20 -111 27 -150 6 -38 18 -84 25 -102 8 -17 14
-54 14 -82 0 -29 7 -68 16 -89 9 -20 20 -64 24 -97 18 -130 33 -202 56 -256
13 -31 24 -67 24 -81 0 -13 7 -48 15 -78 9 -30 27 -100 40 -155 14 -55 34
-129 45 -165 11 -36 25 -87 31 -115 10 -46 23 -87 58 -185 7 -19 20 -57 28
-85 9 -27 28 -86 44 -130 15 -44 40 -118 54 -165 15 -47 36 -102 46 -122 11
-21 19 -45 19 -55 0 -10 12 -41 27 -68 14 -28 39 -88 55 -134 15 -46 36 -97
45 -115 25 -48 28 -55 67 -156 38 -98 65 -156 89 -200 33 -57 117 -240 117
-254 0 -8 4 -17 9 -21 6 -3 22 -29 36 -58 14 -28 37 -70 51 -92 13 -22 29 -58
35 -79 6 -21 22 -57 37 -80 14 -23 37 -61 50 -86 13 -25 37 -62 53 -82 16 -20
29 -45 29 -55 0 -10 9 -31 20 -48 12 -16 36 -61 55 -98 37 -73 118 -203 157
-252 14 -16 37 -55 52 -85 16 -30 42 -70 57 -88 16 -18 29 -37 29 -42 0 -12
100 -154 112 -158 4 -2 8 -9 8 -15 0 -9 45 -82 60 -97 26 -25 153 -204 180
-252 11 -21 29 -42 40 -48 11 -6 27 -24 35 -40 9 -16 34 -52 58 -79 23 -28 58
-73 77 -102 45 -67 208 -257 251 -293 18 -15 45 -46 59 -69 15 -23 68 -85 119
-137 50 -52 100 -106 110 -120 11 -14 50 -57 87 -96 38 -39 96 -102 128 -140
32 -38 73 -79 89 -91 35 -26 152 -147 175 -181 8 -13 28 -30 44 -38 15 -8 39
-32 53 -54 14 -22 32 -40 40 -40 8 0 56 -37 107 -83 51 -45 113 -99 138 -118
25 -20 87 -77 138 -127 55 -54 107 -95 127 -102 19 -6 35 -15 35 -20 0 -8 102
-82 174 -125 18 -11 67 -50 109 -87 41 -38 78 -68 82 -68 4 0 29 -17 56 -37
46 -36 154 -113 264 -188 167 -114 311 -211 320 -214 6 -2 21 -13 35 -26 25
-22 233 -145 245 -145 4 0 24 -14 45 -30 21 -17 60 -40 87 -52 26 -11 60 -29
75 -39 14 -11 82 -48 150 -83 68 -35 133 -68 143 -74 11 -6 54 -27 95 -47 41
-21 100 -53 131 -71 31 -19 62 -34 68 -34 6 0 52 -21 103 -48 51 -26 102 -52
114 -57 11 -6 46 -22 77 -37 31 -16 59 -28 62 -28 6 0 101 -43 221 -101 34
-16 68 -29 77 -29 8 0 28 -7 44 -15 61 -32 143 -64 179 -70 22 -4 50 -14 64
-24 30 -20 80 -41 175 -75 39 -13 86 -30 105 -36 19 -7 50 -19 68 -26 18 -8
44 -14 57 -14 14 0 42 -6 62 -14 21 -8 72 -24 113 -36 41 -13 84 -29 96 -36
11 -7 63 -24 115 -39 52 -15 117 -34 144 -42 114 -35 370 -101 485 -124 30 -6
84 -19 120 -29 36 -11 112 -28 170 -39 58 -11 141 -29 185 -41 44 -11 179 -34
300 -51 121 -16 234 -34 250 -39 17 -5 62 -12 100 -15 39 -3 103 -11 144 -16
40 -6 105 -11 143 -11 38 0 84 -6 102 -13 18 -8 93 -16 176 -20 80 -3 219 -13
310 -22 135 -13 245 -14 610 -9 502 8 674 13 814 25 53 4 107 6 119 4 12 -2
69 5 127 17 58 12 123 24 145 25 191 17 280 27 340 39 86 18 237 43 327 55 37
5 73 13 79 17 7 4 78 20 158 35 161 32 253 51 351 74 36 9 97 22 135 29 39 7
93 20 120 29 122 37 158 47 174 47 9 0 54 12 101 26 47 15 114 33 149 41 36 8
93 25 126 38 34 14 68 25 76 25 9 0 47 16 86 35 41 20 86 35 107 35 32 0 71
13 136 45 14 7 59 22 100 35 112 33 155 50 259 102 53 26 100 48 106 48 5 0
66 23 134 50 68 28 128 50 133 50 5 0 21 9 35 20 14 11 31 20 38 20 13 0 116
46 165 73 14 8 69 35 122 61 53 26 104 56 114 67 21 24 86 53 136 63 20 3 52
18 72 31 20 14 49 28 64 32 28 7 64 25 131 67 21 14 51 28 66 32 14 3 33 17
41 30 9 13 32 28 52 35 20 7 52 20 70 31 17 10 49 28 70 39 20 12 50 32 65 45
16 13 34 24 41 24 7 0 31 13 53 29 23 16 63 41 89 55 27 14 76 46 109 70 33
25 64 45 68 45 5 1 41 24 81 51 40 28 75 50 78 50 3 0 54 33 113 73 59 39 116
77 128 84 11 6 32 22 46 35 41 38 117 98 124 98 13 0 107 68 192 139 49 42 98
83 109 91 11 8 31 27 46 42 14 15 46 41 70 57 25 16 86 66 135 111 50 46 101
90 115 99 13 9 47 38 75 64 27 27 79 73 115 102 36 29 78 68 92 88 15 19 47
47 72 63 24 15 51 40 61 56 9 15 21 28 27 28 16 0 464 456 515 525 25 33 66
81 91 106 26 25 87 95 137 155 49 60 117 141 150 180 33 40 94 118 135 174 41
56 93 123 115 149 22 26 58 73 80 105 22 32 56 77 76 100 20 22 62 81 95 129
94 141 107 160 135 197 15 19 38 55 51 80 44 80 63 112 84 139 11 14 33 51 48
81 16 30 36 64 46 75 9 11 41 65 70 120 29 55 60 109 70 120 15 17 43 67 137
240 93 172 193 372 193 388 0 7 4 17 9 22 15 16 91 168 91 182 0 7 14 34 30
60 17 26 30 54 30 62 0 9 9 27 20 41 11 14 20 30 20 35 0 11 79 205 97 240 14
27 59 162 68 202 3 17 13 37 21 44 8 6 14 18 14 26 0 9 9 32 20 52 11 20 33
77 49 126 16 50 52 155 79 235 27 80 61 190 75 245 14 55 30 118 36 140 6 22
15 67 22 100 19 99 59 269 69 290 4 11 17 58 29 105 11 47 25 105 31 130 6 25
15 63 20 85 4 22 18 85 30 140 12 55 25 127 29 160 5 33 15 94 24 135 16 77
28 147 47 280 6 41 15 95 20 120 5 25 12 83 15 130 4 47 13 112 21 145 7 33
13 69 12 80 -1 11 4 67 11 125 6 58 13 134 16 170 3 36 10 115 15 175 26 290
8 1408 -25 1596 -8 48 -15 124 -15 170 0 46 -6 129 -14 184 -8 55 -22 154 -32
220 -9 66 -25 159 -35 206 -10 48 -18 123 -17 170 0 46 -5 97 -11 112 -6 16
-11 44 -11 64 0 19 -9 72 -20 117 -11 44 -31 137 -44 206 -14 69 -48 215 -76
325 -29 110 -58 226 -65 257 -7 31 -25 97 -40 145 -15 48 -36 120 -48 158 -11
39 -30 97 -43 130 -12 33 -27 80 -34 105 -6 25 -24 79 -40 120 -16 41 -32 90
-36 109 -7 36 -51 156 -86 231 -11 25 -31 78 -44 118 -13 40 -47 126 -75 190
-28 64 -67 155 -86 202 -19 46 -43 95 -54 108 -10 14 -19 29 -19 35 0 6 -54
121 -121 256 -132 270 -123 253 -209 406 -33 60 -60 110 -60 113 0 2 -8 16
-18 30 -11 15 -45 77 -77 137 -32 61 -71 129 -86 152 -16 23 -29 45 -29 50 0
4 -19 38 -43 75 -23 36 -50 79 -60 95 -9 15 -38 61 -65 100 -119 182 -169 257
-197 293 -16 21 -46 62 -65 90 -56 82 -164 230 -296 404 -24 32 -44 61 -44 65
0 3 -13 20 -28 38 -15 18 -49 60 -77 94 -27 34 -82 98 -120 143 -39 44 -83 99
-100 121 -16 22 -66 78 -111 125 -130 136 -205 216 -219 236 -25 37 -412 422
-515 514 -58 51 -114 102 -126 114 -42 42 -168 152 -208 181 -23 16 -43 33
-44 37 -4 8 -106 89 -148 118 -12 8 -55 42 -96 75 -40 33 -91 73 -113 89 -22
17 -42 33 -45 36 -3 3 -59 46 -125 94 -66 49 -133 99 -150 112 -16 13 -95 68
-175 121 -80 54 -164 112 -187 129 -24 18 -53 36 -65 40 -13 4 -37 18 -54 33
-17 14 -63 46 -102 69 -74 46 -96 58 -184 106 -29 16 -72 42 -95 57 -23 16
-44 29 -48 29 -4 0 -26 14 -51 31 -25 17 -68 41 -97 54 -29 14 -83 42 -122 64
-82 46 -490 251 -500 251 -8 0 -143 62 -205 95 -25 13 -75 35 -112 48 -36 14
-77 32 -90 40 -13 8 -45 23 -73 33 -27 10 -63 26 -80 36 -16 10 -37 18 -46 18
-9 0 -62 20 -119 45 -57 25 -111 45 -122 45 -10 0 -32 7 -47 15 -16 8 -46 21
-67 28 -22 8 -77 29 -124 46 -47 18 -130 45 -185 60 -55 15 -115 35 -133 45
-18 9 -70 25 -115 36 -45 10 -102 26 -127 35 -25 9 -110 34 -190 55 -80 20
-172 45 -205 55 -33 10 -78 21 -100 24 -23 4 -47 11 -54 16 -16 9 -217 52
-306 64 -33 5 -71 14 -85 19 -14 6 -70 18 -125 27 -55 8 -129 22 -165 29 -178
39 -241 49 -324 51 -50 2 -104 8 -119 14 -16 6 -56 11 -90 11 -34 0 -109 7
-167 15 -105 15 -256 26 -635 46 -238 12 -944 8 -1170 -6z m1115 -339 c52 -3
142 -9 200 -11 135 -7 581 -45 590 -50 4 -2 76 -11 159 -20 84 -8 157 -17 161
-20 5 -3 84 -17 176 -31 91 -13 174 -28 183 -33 9 -5 41 -12 71 -16 105 -13
285 -47 327 -61 45 -14 190 -48 282 -65 29 -5 63 -15 74 -21 11 -6 46 -16 76
-23 31 -7 88 -23 126 -35 39 -12 93 -25 120 -29 28 -4 68 -16 90 -25 101 -46
123 -54 175 -66 30 -7 75 -20 100 -30 25 -10 86 -30 135 -45 50 -15 104 -35
121 -44 16 -10 46 -21 66 -25 20 -4 56 -17 80 -31 24 -13 64 -29 91 -36 26 -6
50 -15 53 -20 3 -5 17 -9 32 -9 15 0 38 -8 51 -17 22 -15 137 -60 219 -84 17
-6 32 -14 32 -18 0 -5 60 -34 133 -66 72 -31 202 -92 287 -135 316 -158 616
-313 650 -335 60 -38 142 -90 215 -135 104 -63 359 -227 450 -290 17 -12 50
-34 75 -50 25 -16 70 -48 100 -70 112 -82 203 -145 230 -161 16 -9 42 -29 58
-45 31 -32 74 -67 143 -116 44 -31 76 -57 252 -203 39 -33 77 -63 82 -68 6 -4
30 -26 55 -49 25 -22 72 -63 105 -91 33 -27 92 -82 131 -121 38 -39 146 -146
240 -237 264 -259 499 -506 592 -624 21 -27 51 -62 65 -77 14 -15 38 -45 54
-65 15 -21 50 -65 78 -98 28 -33 64 -78 80 -100 16 -22 52 -67 80 -100 29 -33
68 -85 88 -115 20 -30 49 -68 65 -85 16 -16 32 -37 35 -45 9 -18 50 -82 93
-142 170 -240 226 -321 231 -336 6 -15 22 -42 73 -118 8 -12 48 -78 89 -146
40 -67 82 -135 92 -150 11 -15 19 -30 19 -34 0 -4 6 -15 14 -23 13 -15 31 -48
103 -181 17 -30 44 -76 62 -102 17 -25 38 -64 47 -85 31 -77 73 -162 116 -234
24 -41 57 -108 73 -149 17 -41 48 -109 70 -150 52 -96 85 -174 85 -197 0 -11
4 -23 9 -28 5 -6 23 -42 40 -82 17 -39 41 -93 53 -120 11 -26 33 -82 48 -123
69 -189 120 -310 131 -310 5 0 11 -17 15 -37 3 -21 17 -69 31 -108 14 -38 38
-113 53 -165 16 -52 40 -126 54 -164 14 -38 26 -81 26 -95 1 -14 8 -44 16 -66
8 -22 19 -58 23 -80 5 -22 19 -74 30 -115 28 -104 68 -262 85 -340 41 -179 59
-249 76 -291 11 -26 26 -84 34 -130 25 -141 46 -232 62 -274 10 -26 19 -97 25
-205 11 -209 25 -347 40 -402 6 -24 13 -79 14 -123 2 -44 9 -107 14 -140 18
-98 29 -484 25 -900 -5 -575 -9 -676 -28 -712 -13 -27 -14 -44 -5 -117 7 -60
7 -101 0 -138 -6 -29 -11 -80 -10 -113 0 -33 -5 -76 -11 -95 -6 -19 -15 -80
-21 -135 -6 -55 -12 -113 -14 -130 -8 -79 -27 -190 -36 -213 -6 -15 -9 -47 -8
-72 2 -58 -6 -98 -47 -240 -18 -63 -36 -133 -39 -155 -9 -60 -25 -137 -35
-165 -4 -14 -13 -52 -20 -85 -27 -138 -59 -270 -81 -338 -11 -31 -23 -83 -28
-115 -15 -90 -26 -123 -59 -178 -18 -28 -32 -57 -32 -65 -1 -8 -23 -79 -51
-159 -28 -80 -66 -192 -84 -250 -19 -58 -42 -118 -51 -133 -9 -16 -14 -40 -11
-55 4 -18 -2 -35 -19 -55 -13 -16 -31 -53 -40 -82 -8 -30 -19 -57 -24 -60 -5
-3 -14 -25 -21 -48 -6 -23 -21 -62 -33 -87 -13 -25 -26 -58 -30 -75 -4 -16
-18 -47 -31 -67 -14 -20 -30 -59 -35 -85 -6 -26 -24 -69 -41 -94 -16 -25 -29
-54 -29 -65 0 -10 -14 -39 -30 -63 -17 -24 -30 -51 -30 -60 -1 -9 -19 -50 -40
-91 -22 -41 -58 -113 -80 -160 -22 -47 -51 -105 -65 -130 -13 -25 -44 -86 -70
-137 -25 -51 -67 -125 -94 -165 -26 -40 -67 -104 -91 -143 -24 -38 -58 -93
-77 -122 -18 -28 -41 -71 -52 -95 -10 -24 -26 -50 -36 -58 -9 -8 -21 -23 -26
-35 -13 -31 -87 -143 -149 -226 -30 -41 -64 -92 -75 -114 -11 -22 -34 -58 -52
-79 -18 -22 -33 -45 -33 -52 0 -6 -7 -17 -15 -24 -9 -7 -53 -65 -98 -128 -45
-64 -103 -139 -128 -166 -25 -28 -50 -59 -56 -69 -12 -23 -58 -77 -139 -166
-33 -36 -75 -86 -94 -111 -19 -25 -57 -68 -84 -97 -67 -68 -133 -144 -186
-216 -24 -32 -52 -63 -62 -68 -11 -6 -26 -26 -34 -45 -8 -19 -25 -39 -37 -43
-13 -5 -79 -66 -148 -135 -236 -241 -394 -394 -448 -436 -29 -23 -72 -61 -95
-84 -22 -22 -81 -72 -131 -109 -49 -38 -92 -73 -93 -78 -2 -5 -34 -32 -70 -60
-36 -27 -90 -72 -120 -100 -29 -27 -70 -61 -90 -74 -20 -14 -60 -44 -88 -68
-28 -23 -77 -60 -108 -82 -32 -22 -83 -60 -115 -85 -32 -25 -99 -70 -150 -100
-50 -30 -135 -85 -187 -122 -52 -38 -109 -75 -127 -84 -17 -9 -69 -42 -115
-73 -46 -31 -91 -60 -100 -66 -9 -5 -41 -25 -72 -44 -30 -19 -84 -50 -120 -68
-79 -39 -152 -80 -205 -114 -22 -14 -51 -30 -65 -34 -14 -4 -44 -21 -68 -37
-23 -16 -57 -34 -75 -40 -17 -7 -50 -24 -71 -40 -21 -15 -45 -28 -52 -28 -7 0
-40 -16 -73 -35 -32 -19 -64 -35 -71 -35 -6 0 -54 -22 -108 -49 -53 -27 -118
-59 -144 -71 -26 -12 -50 -25 -53 -31 -4 -5 -13 -9 -22 -9 -8 0 -43 -13 -77
-29 -33 -16 -81 -38 -106 -48 -25 -11 -90 -41 -145 -66 -114 -52 -170 -74
-235 -89 -25 -6 -50 -14 -55 -19 -13 -10 -164 -66 -220 -81 -22 -6 -49 -17
-60 -25 -11 -7 -28 -13 -37 -13 -10 0 -44 -10 -76 -21 -173 -64 -218 -79 -240
-79 -13 0 -33 -5 -44 -11 -24 -13 -146 -47 -408 -115 -96 -25 -196 -56 -221
-68 -31 -16 -73 -26 -135 -30 -81 -7 -150 -20 -331 -62 -34 -8 -74 -14 -88
-14 -14 0 -72 -9 -128 -19 -56 -10 -151 -26 -212 -35 -174 -26 -237 -37 -285
-47 -25 -6 -106 -16 -180 -24 -74 -7 -191 -19 -260 -26 -209 -21 -1056 -41
-1099 -27 -13 5 -132 13 -265 19 -431 18 -575 29 -811 64 -60 9 -126 19 -145
22 -148 20 -334 47 -380 54 -118 19 -312 56 -359 69 -60 16 -193 42 -256 50
-33 4 -96 19 -140 34 -44 15 -100 29 -125 32 -41 6 -192 46 -295 79 -22 7 -80
25 -129 40 -49 15 -101 34 -115 41 -14 8 -37 14 -51 14 -14 0 -56 12 -95 26
-38 14 -86 30 -105 35 -19 6 -48 16 -65 24 -16 7 -59 20 -95 29 -36 8 -90 28
-120 45 -30 17 -61 31 -69 31 -16 0 -121 41 -166 64 -17 9 -39 16 -51 16 -11
0 -51 16 -90 35 -38 19 -73 35 -77 35 -4 0 -58 24 -120 54 -150 72 -224 106
-232 106 -4 0 -67 29 -140 65 -73 36 -135 65 -138 65 -3 0 -54 27 -114 60 -59
34 -119 64 -132 67 -13 3 -46 21 -75 39 -28 19 -55 34 -60 34 -5 0 -17 6 -25
14 -17 14 -103 63 -181 103 -25 13 -74 41 -109 63 -34 22 -65 40 -67 40 -2 0
-53 32 -112 72 -59 39 -131 87 -161 107 -30 20 -59 40 -66 46 -6 5 -31 21 -55
34 -40 21 -106 67 -383 268 -40 28 -80 52 -89 52 -9 1 -24 13 -33 29 -9 15
-42 45 -72 67 -30 22 -73 55 -96 72 -23 18 -59 44 -79 58 -20 13 -74 58 -120
98 -46 41 -99 82 -118 92 -55 27 -90 65 -90 97 0 23 -4 28 -25 28 -27 0 -120
78 -130 109 -3 9 -18 24 -33 34 -16 9 -47 33 -68 54 -22 21 -77 72 -124 113
-91 81 -270 257 -336 330 -22 25 -71 74 -109 110 -39 36 -88 87 -110 114 -22
27 -78 93 -125 146 -47 53 -94 109 -105 124 -11 16 -36 48 -55 71 -19 23 -47
57 -62 76 -161 206 -212 268 -236 294 -16 17 -46 57 -67 90 -21 33 -77 112
-123 175 -77 103 -144 202 -194 286 -10 16 -38 61 -63 99 -25 39 -59 95 -75
125 -16 30 -52 87 -80 125 -27 39 -59 90 -70 115 -11 25 -25 52 -30 60 -6 8
-19 33 -30 55 -10 22 -34 67 -53 100 -32 58 -97 180 -209 395 -31 58 -67 123
-82 144 -14 21 -26 44 -26 50 0 6 -16 45 -36 86 -20 41 -47 107 -61 145 -14
39 -35 88 -47 110 -25 43 -70 159 -106 270 -13 39 -29 81 -37 95 -13 25 -52
129 -98 265 -13 39 -33 95 -45 125 -11 30 -27 82 -36 115 -8 33 -24 78 -34
100 -19 41 -41 114 -65 217 -7 31 -16 62 -20 68 -4 6 -23 69 -41 138 -19 70
-39 143 -45 162 -6 19 -17 67 -24 107 -8 39 -24 109 -36 155 -20 78 -30 124
-59 273 -6 33 -17 85 -25 115 -14 57 -36 189 -60 370 -8 58 -21 143 -29 190
-22 130 -37 305 -45 520 -4 123 -12 207 -20 228 -9 23 -11 50 -6 85 11 70 7
139 -9 179 -20 52 -12 783 13 1123 10 131 14 183 27 295 2 25 9 90 14 145 5
55 14 145 19 200 6 55 17 123 25 150 8 28 20 93 25 145 11 100 40 275 67 400
8 41 26 131 39 200 12 69 27 141 33 160 6 19 22 78 36 130 15 52 30 104 35
115 6 11 19 64 30 118 12 54 30 116 41 137 11 22 20 50 20 64 0 14 11 60 25
102 14 42 25 92 25 111 0 20 10 49 25 71 14 20 25 46 25 57 0 11 6 31 13 45
16 30 38 95 61 175 10 33 26 78 36 100 10 22 30 72 44 110 13 39 36 99 50 134
14 36 26 71 26 80 0 8 7 22 16 32 8 9 28 48 44 86 16 37 48 116 72 175 25 59
49 113 55 120 6 7 16 31 23 53 7 22 27 69 45 105 18 36 52 106 76 155 24 50
48 97 54 105 6 8 20 35 30 60 36 87 54 125 75 155 11 17 20 39 20 50 0 10 14
33 30 50 43 45 120 182 129 232 9 47 34 91 56 100 8 3 31 33 52 67 20 33 57
93 81 131 25 39 60 93 77 120 17 28 67 104 111 170 43 66 81 125 83 130 2 6
19 29 37 52 19 23 34 45 34 49 0 7 74 107 98 133 7 8 21 26 30 40 34 53 188
254 322 417 101 124 218 257 346 394 38 41 112 122 164 180 101 113 390 405
428 431 12 9 84 74 160 146 75 72 164 153 197 180 33 27 66 57 74 66 7 9 48
40 90 68 42 28 84 60 94 71 9 11 40 37 67 57 27 20 98 74 157 121 59 47 126
98 148 113 70 49 184 130 263 189 73 53 123 86 272 178 36 22 97 60 135 84 39
25 95 59 125 76 75 41 89 50 137 88 23 17 46 32 52 32 12 0 75 36 116 66 17
12 44 26 60 30 17 3 41 17 55 29 24 21 449 235 468 235 5 0 15 7 22 15 7 8 31
20 53 26 22 6 54 21 71 34 17 13 45 27 61 31 17 4 47 18 67 31 21 12 43 23 50
23 14 1 107 46 148 72 14 9 50 21 80 28 30 7 66 23 80 36 14 12 39 26 55 29
67 15 188 56 233 78 26 14 64 27 84 31 21 4 63 19 95 33 32 15 76 32 98 39
122 36 283 100 306 121 22 20 32 23 68 17 28 -5 59 -1 94 10 111 35 254 74
292 81 22 3 83 19 135 35 52 16 136 36 187 44 50 9 111 22 135 31 24 8 70 17
103 20 65 7 176 28 268 51 32 8 103 19 159 25 56 5 105 12 108 14 4 2 49 9
101 16 52 6 102 16 113 21 10 6 66 14 125 18 133 11 320 27 526 46 182 17 237
20 424 28 74 3 136 7 137 9 6 5 618 -1 714 -7z"/>
<path d="M12265 21900 c-42 -9 -58 -20 -87 -55 -25 -30 -58 -118 -58 -152 0
-11 -5 -24 -11 -30 -12 -12 -37 -97 -50 -173 -6 -30 -25 -87 -44 -125 -19 -39
-35 -81 -35 -95 0 -14 -9 -43 -19 -66 -10 -22 -27 -74 -36 -115 -10 -41 -29
-110 -42 -154 -14 -44 -29 -102 -34 -130 -10 -53 -64 -232 -105 -350 -14 -38
-31 -92 -39 -120 -7 -27 -30 -99 -49 -159 -20 -59 -40 -134 -45 -166 -5 -32
-16 -71 -24 -87 -12 -23 -77 -232 -77 -248 0 -3 -6 -5 -14 -5 -7 0 -19 15 -26
33 -6 17 -20 55 -31 82 -10 28 -19 59 -19 70 0 11 -7 33 -15 49 -9 16 -18 46
-21 65 -3 20 -12 47 -19 61 -7 14 -20 50 -30 80 -9 30 -26 75 -37 100 -11 25
-24 54 -28 65 -5 11 -17 52 -26 90 -9 39 -21 79 -27 90 -6 11 -18 47 -28 80
-18 63 -43 136 -58 170 -5 11 -17 45 -27 75 -9 30 -31 91 -49 135 -18 44 -41
113 -50 153 -10 40 -32 112 -50 160 -36 98 -52 142 -90 257 -83 248 -127 350
-157 366 -28 15 -238 4 -323 -16 -33 -8 -105 -14 -161 -15 -93 0 -242 -18
-324 -40 -19 -5 -81 -14 -138 -21 -61 -7 -107 -18 -114 -26 -8 -10 -9 -81 -4
-256 4 -133 9 -321 11 -417 2 -96 7 -260 10 -365 3 -104 8 -345 10 -535 3
-209 9 -359 16 -380 7 -23 12 -237 15 -620 5 -534 7 -586 22 -598 9 -7 26 -10
37 -7 11 3 79 10 150 16 72 5 142 14 157 20 14 6 35 8 46 5 11 -4 35 0 53 8
19 8 74 24 123 35 50 11 95 26 102 33 16 16 19 202 9 513 -3 127 -8 325 -9
440 -1 123 -8 239 -15 281 -10 50 -11 80 -4 100 6 18 7 79 2 159 -10 160 -13
781 -4 795 13 21 34 9 40 -22 3 -18 19 -67 34 -108 54 -146 99 -276 116 -335
9 -33 30 -90 46 -126 16 -36 29 -74 29 -85 0 -11 6 -28 14 -39 7 -11 24 -54
36 -95 36 -119 62 -193 77 -215 7 -11 13 -33 13 -49 0 -16 15 -65 34 -110 19
-45 44 -112 56 -151 13 -38 26 -74 30 -80 4 -5 17 -44 29 -85 12 -41 27 -83
32 -94 11 -18 30 -83 50 -161 5 -22 20 -67 33 -100 13 -33 34 -94 46 -135 34
-115 72 -201 96 -216 18 -13 48 -13 185 -5 90 5 223 8 294 7 137 -2 186 8 203
41 25 47 86 247 132 433 15 63 39 147 53 185 28 78 86 265 113 365 10 36 26
82 36 102 10 21 18 48 18 60 0 13 14 61 30 108 32 88 52 163 71 265 7 33 18
69 25 80 7 11 29 76 48 145 19 69 41 145 49 170 8 25 22 68 30 95 8 28 20 64
26 80 6 17 16 49 21 73 7 25 16 42 25 42 12 0 15 -15 14 -72 0 -40 3 -113 9
-163 12 -113 11 -102 11 -392 0 -142 4 -256 10 -275 7 -21 8 -83 3 -173 -4
-77 -3 -183 2 -235 5 -52 7 -115 6 -140 -6 -91 15 -720 26 -777 8 -44 31 -55
139 -64 128 -10 304 -36 343 -49 18 -7 43 -9 57 -6 13 3 46 1 74 -5 37 -8 55
-7 72 1 22 12 22 13 15 229 -4 119 -9 367 -11 551 -3 184 -7 389 -10 455 -5
117 -9 358 -20 1145 -7 489 -15 784 -24 797 -16 25 -56 32 -182 34 -74 0 -164
5 -201 10 -36 5 -174 13 -305 19 -131 6 -247 12 -258 14 -11 2 -34 0 -50 -4z"/>
<path d="M17953 19741 c-94 -107 -222 -291 -299 -427 -34 -61 -124 -179 -189
-249 -26 -27 -67 -77 -91 -110 -24 -33 -49 -66 -55 -73 -22 -27 -115 -170
-159 -247 -55 -95 -103 -160 -173 -235 -60 -63 -123 -154 -163 -231 -31 -60
-53 -90 -134 -182 -30 -35 -79 -94 -108 -131 -48 -62 -64 -84 -127 -186 -58
-92 -161 -247 -176 -265 -36 -42 -67 -110 -62 -137 3 -14 22 -43 44 -64 21
-21 39 -43 39 -49 0 -10 142 -155 432 -439 70 -68 136 -127 148 -131 14 -5 43
7 98 40 89 53 92 55 152 84 48 23 57 29 134 79 28 18 55 32 61 32 6 0 22 11
35 25 13 13 50 38 84 55 34 17 75 39 92 49 62 35 179 102 194 112 8 5 26 15
40 22 14 7 45 25 70 41 56 37 205 124 245 144 17 8 37 21 45 27 8 7 40 25 70
41 30 15 69 37 85 49 17 12 44 28 60 37 29 14 69 38 213 125 35 21 82 53 105
70 23 18 46 33 50 33 17 0 94 40 107 55 14 17 46 20 55 5 3 -5 -18 -38 -47
-72 -29 -33 -84 -97 -122 -141 -39 -44 -87 -103 -107 -131 -46 -61 -42 -57
-105 -131 -29 -33 -59 -74 -68 -92 -9 -18 -32 -45 -51 -60 -20 -15 -44 -42
-54 -60 -21 -33 -22 -35 -105 -130 -30 -34 -62 -75 -71 -92 -8 -17 -19 -31
-24 -31 -13 0 -96 -88 -141 -150 -22 -30 -61 -79 -87 -108 -26 -29 -57 -69
-69 -90 -13 -20 -46 -57 -74 -81 -29 -24 -65 -66 -82 -92 -16 -27 -55 -71 -85
-98 -52 -47 -93 -117 -110 -187 -10 -43 41 -132 205 -358 34 -47 62 -89 62
-93 0 -4 9 -17 21 -29 12 -13 35 -43 53 -67 17 -25 49 -69 71 -99 22 -29 45
-63 51 -73 21 -38 75 -31 189 24 57 28 107 51 113 51 5 0 20 8 33 18 13 10 40
24 59 32 19 7 73 31 120 53 47 22 119 55 160 74 41 19 149 71 240 116 91 44
179 86 195 93 86 37 373 176 470 227 17 9 48 24 70 33 22 9 117 53 210 99 153
75 368 179 530 256 33 16 88 40 122 53 35 14 77 35 95 47 39 28 98 59 113 59
5 0 38 13 72 29 67 32 86 60 59 90 -9 10 -16 22 -16 28 0 5 -13 27 -30 49 -16
21 -30 43 -30 48 0 7 -26 49 -125 201 -18 28 -41 66 -50 85 -31 62 -84 120
-111 120 -13 0 -50 -13 -81 -29 -32 -16 -112 -54 -178 -86 -66 -32 -127 -63
-135 -70 -8 -7 -26 -16 -40 -20 -39 -11 -272 -120 -320 -149 -23 -14 -138 -67
-220 -102 -19 -8 -42 -19 -50 -24 -8 -5 -53 -28 -100 -50 -47 -23 -97 -48
-112 -56 -14 -8 -31 -14 -38 -14 -6 0 -30 -13 -53 -28 -23 -16 -60 -34 -83
-40 -23 -7 -58 -23 -78 -37 -20 -14 -49 -28 -64 -32 -15 -3 -43 -15 -62 -26
-45 -26 -128 -67 -136 -67 -3 0 -31 -12 -62 -26 -74 -34 -213 -94 -218 -94
-19 0 10 44 89 133 50 58 126 148 167 198 41 51 99 120 129 153 30 34 67 79
83 101 16 22 68 85 116 140 48 55 101 118 117 140 16 22 74 92 130 156 109
126 120 140 172 212 19 26 38 47 41 47 4 0 34 35 67 77 33 42 74 91 90 109 17
18 48 55 70 84 22 28 67 83 101 123 98 115 99 97 -19 235 -56 66 -124 146
-150 178 -26 33 -60 73 -75 91 -15 18 -52 64 -82 104 -80 105 -154 179 -178
179 -27 0 -153 -67 -275 -146 -53 -35 -101 -64 -106 -64 -5 0 -35 -17 -67 -38
-33 -21 -72 -47 -89 -58 -33 -21 -130 -76 -218 -124 -32 -17 -91 -52 -130 -77
-40 -26 -101 -63 -137 -83 -36 -21 -107 -63 -158 -94 -51 -31 -95 -56 -97 -56
-3 0 -28 -16 -55 -35 -27 -19 -54 -35 -58 -35 -5 0 -27 -13 -49 -29 -21 -15
-61 -38 -88 -50 -27 -12 -56 -28 -65 -36 -19 -17 -146 -89 -245 -138 -40 -20
-151 -80 -177 -95 -15 -9 -30 -13 -34 -9 -10 9 14 62 38 84 11 10 54 68 94
128 41 61 93 135 115 165 22 30 51 71 64 91 13 20 55 78 94 130 39 52 82 110
96 129 14 19 38 52 53 72 15 20 49 72 76 115 27 43 60 89 73 102 12 13 36 43
51 67 16 23 41 58 56 76 53 64 222 293 246 333 13 22 35 54 49 70 31 35 55 70
127 179 29 45 62 93 73 108 12 14 21 32 21 40 0 8 -50 59 -112 113 -61 55
-132 118 -157 141 -25 22 -54 44 -63 47 -10 4 -18 11 -18 16 0 20 -149 111
-180 111 -8 -1 -34 -23 -57 -49z"/>
<path d="M4795 19101 c-33 -3 -71 -14 -85 -23 -13 -10 -36 -18 -51 -18 -80 0
-266 -116 -398 -250 -129 -130 -271 -282 -271 -292 0 -5 -15 -24 -32 -42 -46
-45 -101 -113 -113 -139 -5 -12 -20 -33 -32 -47 -42 -49 -93 -116 -160 -210
-37 -52 -91 -122 -120 -156 -29 -34 -53 -64 -53 -68 0 -4 -22 -35 -49 -70 -28
-35 -62 -87 -78 -116 -15 -29 -42 -67 -58 -84 -53 -54 -145 -178 -145 -195 0
-4 -11 -18 -24 -30 -14 -13 -30 -37 -37 -54 -7 -16 -32 -50 -56 -73 -24 -24
-63 -74 -88 -111 -25 -37 -61 -90 -79 -118 -19 -27 -61 -82 -95 -122 -90 -107
-90 -110 5 -201 43 -41 96 -86 117 -99 20 -13 37 -28 37 -33 0 -5 13 -16 30
-25 16 -8 76 -52 134 -98 125 -98 181 -139 221 -160 17 -8 57 -39 90 -69 62
-55 120 -99 340 -259 33 -23 66 -49 74 -57 8 -7 26 -21 40 -30 14 -9 116 -84
226 -167 110 -82 218 -163 240 -178 48 -34 93 -68 220 -167 97 -76 148 -113
240 -174 28 -19 57 -42 65 -51 8 -9 39 -34 70 -54 98 -67 134 -92 140 -99 10
-15 86 -70 117 -85 l31 -17 41 43 c23 23 41 45 41 49 0 4 24 35 53 70 48 58
194 242 242 306 11 15 47 63 81 107 33 44 72 96 85 116 22 34 114 152 176 227
16 19 54 70 86 115 32 45 69 93 81 107 13 14 33 43 46 65 13 22 44 65 69 95
25 30 57 71 70 90 13 19 30 42 38 50 29 33 83 107 99 135 9 17 46 67 81 112
34 46 63 86 63 91 0 5 9 17 20 27 27 24 119 164 159 240 18 33 36 67 41 75 33
54 90 225 89 270 0 19 3 76 6 125 7 94 -2 146 -45 269 -42 124 -137 249 -267
357 -59 49 -203 113 -263 118 -136 10 -368 5 -396 -8 -16 -7 -42 -19 -59 -26
-16 -7 -51 -23 -76 -34 -25 -12 -49 -21 -54 -21 -4 0 -46 -28 -92 -61 -101
-73 -120 -70 -84 13 49 114 78 338 61 478 -10 77 -39 180 -60 205 -4 5 -11 21
-15 35 -4 13 -17 38 -29 55 -108 155 -270 279 -393 301 -21 3 -47 12 -58 19
-26 16 -117 35 -158 33 -18 0 -59 -4 -92 -7z m62 -822 c114 -53 173 -117 204
-223 l21 -70 -21 -85 c-23 -93 -73 -184 -165 -300 -73 -93 -140 -189 -164
-237 -12 -22 -36 -54 -55 -71 -18 -16 -49 -51 -67 -78 -69 -100 -172 -231
-201 -253 -16 -13 -29 -28 -29 -33 0 -5 -19 -35 -42 -66 -24 -30 -48 -63 -53
-72 -23 -40 -148 -191 -158 -191 -6 0 -26 12 -46 28 -19 15 -56 41 -82 57 -26
17 -73 50 -104 75 -32 25 -82 63 -110 85 -145 111 -215 169 -215 180 0 7 7 18
16 26 8 7 22 26 31 42 8 17 37 58 64 92 27 35 49 67 49 71 0 5 26 38 57 74 31
36 71 89 90 118 18 28 37 52 42 52 5 0 24 21 42 46 38 51 122 160 144 187 8 9
32 41 52 70 46 66 155 209 238 312 35 44 70 91 77 104 8 15 44 38 98 62 118
54 169 53 287 -2z m965 -753 c86 -23 140 -50 195 -100 83 -75 126 -196 105
-298 -17 -83 -79 -206 -144 -283 -18 -22 -49 -62 -68 -88 -19 -27 -50 -66 -68
-88 -19 -21 -59 -76 -90 -122 -31 -46 -83 -117 -115 -158 -59 -75 -199 -257
-259 -338 -18 -23 -38 -48 -44 -55 -5 -6 -29 -39 -52 -72 -49 -73 -96 -116
-118 -107 -9 3 -73 48 -142 99 -202 148 -211 154 -221 154 -5 0 -18 11 -29 25
-11 14 -47 45 -81 70 -34 25 -61 52 -61 62 0 20 56 109 80 126 19 14 78 96
248 347 36 52 75 106 88 120 37 40 94 111 106 134 6 11 32 47 58 81 26 33 64
85 85 115 74 106 217 265 286 319 17 13 65 34 108 47 42 12 77 22 78 23 1 1
26 -5 55 -13z"/>
<path d="M11430 18407 c-3 -2 -77 -7 -166 -10 -103 -3 -170 -9 -185 -18 -14
-7 -83 -15 -169 -19 -129 -7 -232 -20 -383 -50 -27 -6 -64 -10 -82 -10 -19 0
-46 -5 -60 -10 -15 -6 -54 -13 -88 -16 -34 -4 -82 -12 -107 -19 -25 -7 -67
-18 -95 -25 -27 -7 -95 -26 -150 -42 -55 -16 -122 -35 -150 -43 -62 -18 -348
-112 -470 -155 -49 -18 -98 -39 -108 -48 -10 -9 -27 -17 -38 -19 -11 -2 -32
-9 -47 -17 -15 -7 -43 -16 -63 -20 -21 -4 -53 -18 -73 -31 -20 -14 -45 -25
-54 -25 -9 0 -37 -12 -62 -25 -25 -14 -56 -30 -70 -36 -140 -61 -353 -167
-408 -204 -30 -19 -57 -35 -61 -35 -4 0 -23 -11 -42 -26 -19 -14 -61 -39 -94
-56 -33 -16 -76 -43 -95 -58 -19 -15 -53 -38 -76 -51 -119 -70 -439 -298 -592
-421 -51 -41 -216 -194 -278 -257 -16 -17 -35 -31 -40 -31 -6 0 -39 -30 -75
-66 -35 -37 -72 -74 -81 -83 -126 -119 -276 -274 -299 -308 -17 -24 -36 -43
-44 -43 -8 0 -26 -17 -42 -37 -15 -21 -43 -57 -63 -80 -19 -23 -48 -60 -65
-82 -48 -66 -138 -171 -147 -171 -4 0 -24 -26 -44 -57 -20 -32 -40 -60 -44
-63 -6 -5 -20 -25 -129 -190 -89 -135 -111 -172 -111 -186 0 -7 -22 -40 -50
-73 -27 -33 -50 -63 -50 -66 0 -6 -46 -80 -100 -160 -15 -23 -37 -72 -50 -110
-33 -99 -38 -109 -88 -167 -38 -45 -92 -144 -92 -168 0 -8 -53 -128 -90 -205
-11 -22 -27 -65 -36 -95 -10 -30 -23 -62 -30 -70 -19 -22 -44 -85 -44 -110 0
-11 -9 -33 -20 -48 -11 -15 -33 -70 -48 -122 -15 -52 -35 -106 -45 -120 -9
-13 -17 -33 -17 -43 0 -23 -26 -107 -51 -165 -11 -23 -19 -55 -19 -71 0 -16
-7 -48 -15 -71 -8 -23 -15 -51 -15 -62 0 -10 -7 -35 -17 -56 -24 -54 -41 -117
-53 -196 -6 -38 -21 -116 -34 -175 -14 -58 -32 -155 -42 -216 -9 -60 -23 -146
-31 -190 -22 -134 -33 -254 -24 -276 4 -13 2 -43 -6 -73 -8 -28 -14 -85 -14
-126 1 -41 -2 -210 -5 -375 -3 -174 -1 -367 5 -460 24 -349 31 -427 41 -468 7
-23 16 -60 22 -82 6 -22 12 -67 14 -100 2 -33 10 -91 18 -130 8 -38 24 -126
36 -195 23 -128 38 -189 71 -295 10 -33 32 -109 48 -170 28 -109 59 -201 87
-262 7 -17 14 -36 14 -42 0 -10 54 -175 95 -289 8 -24 27 -65 40 -92 14 -27
25 -55 25 -62 0 -7 23 -58 50 -112 28 -55 50 -104 50 -109 0 -10 55 -131 88
-192 24 -46 101 -194 129 -250 14 -27 38 -69 54 -92 16 -23 29 -44 29 -46 0
-13 86 -156 111 -185 16 -18 29 -38 29 -44 0 -6 12 -27 28 -47 35 -46 72 -101
72 -106 0 -9 104 -160 151 -221 26 -33 54 -74 62 -90 24 -45 238 -317 261
-331 6 -5 22 -21 35 -38 75 -99 531 -562 616 -625 26 -19 56 -46 68 -59 12
-13 35 -36 51 -50 16 -14 35 -32 42 -39 7 -6 15 -12 19 -12 9 0 134 -91 168
-123 16 -15 53 -43 81 -62 28 -18 74 -50 101 -70 68 -49 178 -125 225 -155 21
-14 69 -46 107 -71 65 -45 267 -159 280 -159 3 0 20 -10 37 -23 33 -24 396
-207 412 -207 5 0 29 -13 54 -30 24 -16 58 -32 75 -36 16 -4 56 -19 87 -35 32
-16 63 -29 69 -29 6 0 45 -16 85 -35 41 -19 104 -44 141 -55 36 -11 71 -24 77
-29 17 -13 162 -61 185 -61 11 0 23 -4 26 -10 9 -15 134 -49 196 -53 37 -3 67
-11 87 -26 17 -11 54 -26 82 -31 28 -5 55 -12 60 -15 5 -3 35 -10 67 -16 32
-6 101 -23 153 -39 52 -16 129 -34 170 -39 80 -12 122 -20 239 -46 41 -9 113
-17 160 -19 47 -2 154 -11 236 -20 431 -50 841 -50 1208 0 59 8 175 19 257 24
94 5 190 18 257 33 60 14 160 30 223 36 64 6 149 20 190 32 41 11 111 27 155
35 95 16 189 39 206 49 7 5 53 20 103 36 94 28 146 46 181 61 11 4 63 19 115
32 52 13 122 37 155 54 33 16 74 32 90 36 42 9 155 56 185 77 14 9 52 25 85
37 33 11 81 32 106 45 25 13 56 28 70 32 13 4 49 23 80 41 31 19 63 34 71 34
8 0 40 16 73 35 32 20 69 38 82 41 13 4 50 24 84 45 33 22 62 39 64 39 2 0 24
13 47 29 24 16 56 33 71 36 14 4 48 22 74 41 26 19 51 34 55 34 4 0 27 13 50
28 171 114 300 201 338 229 25 18 63 42 85 54 22 12 67 45 100 73 33 29 87 72
119 96 33 25 85 68 115 96 31 28 67 58 80 67 41 27 159 136 306 282 78 77 173
170 211 206 89 85 184 192 207 232 9 18 45 59 80 93 34 33 74 76 89 95 63 78
140 175 153 191 8 10 27 37 41 60 15 24 31 45 35 49 27 17 295 444 373 594 14
28 42 77 61 110 19 33 51 94 70 135 20 41 55 116 79 165 75 155 113 238 141
305 14 36 32 79 39 95 8 17 28 71 45 120 18 50 38 106 45 125 33 87 80 234
108 335 16 61 39 142 50 180 10 39 23 98 28 132 5 35 13 71 18 80 17 32 49
175 67 293 9 63 23 149 30 190 32 174 49 430 36 524 -8 53 -6 84 6 144 9 42
17 113 19 157 1 44 7 134 14 199 10 97 10 138 0 216 -7 54 -10 109 -6 123 3
14 -1 79 -9 144 -9 65 -18 161 -20 213 -3 94 -20 222 -50 375 -8 44 -22 125
-30 180 -16 102 -23 140 -55 280 -10 44 -24 107 -30 140 -7 33 -30 112 -51
175 -22 63 -39 124 -39 135 0 11 -16 65 -36 120 -20 55 -52 145 -70 200 -19
55 -38 109 -43 120 -5 11 -19 47 -31 80 -12 33 -42 101 -65 150 -24 50 -46
104 -50 120 -4 17 -13 37 -20 45 -7 8 -23 39 -35 69 -11 30 -29 66 -39 80 -10
14 -25 46 -35 70 -9 24 -27 57 -40 75 -12 17 -40 65 -61 106 -20 41 -78 144
-129 227 -50 84 -107 182 -126 218 -19 36 -53 91 -74 122 -22 32 -64 95 -94
141 -29 45 -58 82 -63 82 -5 0 -14 11 -19 24 -5 14 -20 37 -34 53 -14 15 -47
56 -73 90 -140 180 -175 224 -194 233 -10 6 -39 38 -63 71 -45 62 -373 401
-529 546 -117 110 -302 263 -352 293 -22 13 -50 36 -63 52 -13 15 -28 28 -34
28 -6 0 -29 16 -52 36 -50 44 -182 143 -256 193 -138 94 -179 121 -211 139
-19 11 -74 44 -124 74 -49 30 -110 65 -135 78 -25 14 -52 30 -60 36 -8 6 -26
15 -40 19 -14 4 -52 24 -85 44 -66 40 -229 121 -370 183 -49 22 -117 53 -151
68 -33 16 -78 32 -100 35 -21 4 -51 15 -65 25 -28 20 -148 70 -168 70 -7 0
-36 11 -64 25 -29 13 -79 31 -112 40 -33 8 -74 22 -90 29 -58 28 -290 93 -380
107 -33 5 -103 22 -155 38 -52 16 -120 32 -150 36 -30 3 -73 10 -95 16 -89 20
-244 48 -305 54 -36 3 -83 10 -105 15 -22 6 -119 15 -215 21 -96 6 -200 13
-230 15 -183 12 -724 28 -730 21z m2742 -6909 c16 -10 28 -10 -932 -10 -1038
0 -1100 0 -1100 11 0 11 2015 10 2032 -1z m3925 -538 c-5 -119 -11 -179 -21
-199 -8 -15 -15 -46 -14 -68 0 -22 -7 -74 -15 -114 -9 -41 -21 -94 -26 -119
-8 -38 -9 -30 -8 58 1 68 6 105 14 110 7 4 15 43 19 90 4 50 11 79 17 75 6 -4
7 15 3 53 -8 78 -8 71 -1 134 6 59 27 150 34 150 2 0 1 -77 -2 -170z m-6311
-1802 c3 -140 8 -234 14 -236 6 -2 10 -10 10 -18 0 -9 -4 -12 -10 -9 -6 4 -10
-12 -10 -39 0 -25 5 -46 10 -46 6 0 10 -29 10 -67 0 -48 -3 -64 -10 -53 -6 10
-10 11 -10 3 0 -7 -4 -13 -10 -13 -6 0 -10 127 -10 362 0 199 3 359 6 356 3
-3 7 -111 10 -240z m5291 -795 c27 -26 47 -52 45 -59 -1 -7 2 -15 8 -19 5 -3
10 1 10 10 0 8 7 18 15 22 9 3 25 23 36 44 19 39 49 53 49 23 0 -8 -14 -33
-32 -55 -23 -28 -34 -36 -40 -27 -5 8 -8 -2 -8 -25 0 -37 -24 -76 -38 -62 -4
4 -7 21 -7 38 -1 21 -5 31 -14 29 -25 -5 -101 39 -101 58 0 22 17 70 25 70 3
0 26 -21 52 -47z m-213 -179 c9 -3 16 -12 16 -19 0 -7 9 -15 19 -18 13 -3 22
3 30 19 6 13 17 24 24 24 32 0 50 -51 25 -67 -7 -4 -18 -16 -23 -27 -12 -20
-112 -56 -161 -57 -25 -1 -33 -7 -43 -34 -6 -18 -9 -39 -5 -48 8 -22 58 -40
99 -35 32 4 35 2 35 -22 0 -19 2 -22 10 -10 5 8 15 15 21 15 19 0 37 37 21 42
-9 4 -6 9 10 17 13 7 25 23 28 41 5 30 33 46 51 28 14 -14 2 -38 -27 -53 -15
-8 -24 -22 -24 -36 0 -13 -11 -34 -23 -47 -13 -12 -39 -45 -58 -73 -84 -120
-120 -164 -139 -164 -10 0 -21 3 -23 8 -10 15 14 53 43 70 16 9 33 25 36 34 3
10 18 29 34 44 15 15 26 33 23 41 -8 20 -44 16 -69 -8 -29 -28 -54 -19 -54 19
0 36 -13 47 -62 56 -24 4 -38 13 -38 21 0 8 -9 15 -20 15 -23 0 -25 17 -8 56
11 24 16 26 58 21 61 -6 70 -1 70 39 0 40 26 74 57 74 13 0 28 9 35 20 7 11
14 20 15 20 1 0 8 -3 17 -6z m-267 -349 c9 -19 20 -35 24 -35 4 0 7 -14 7 -30
-1 -21 6 -36 19 -45 12 -8 24 -30 27 -50 5 -26 12 -35 26 -35 31 0 23 -27 -10
-39 -20 -6 -30 -17 -30 -30 0 -11 -5 -23 -12 -27 -8 -5 -9 4 -5 33 9 54 -10
61 -77 29 -43 -21 -53 -22 -66 -11 -8 8 -29 21 -45 29 l-30 16 26 0 c21 0 30
7 40 33 7 17 21 45 32 60 20 30 17 92 -5 99 -24 8 1 38 32 38 25 0 33 -6 47
-35z m-322 -520 c0 -26 -5 -31 -37 -39 -33 -8 -37 -13 -40 -45 -2 -24 -10 -39
-23 -46 -20 -10 -36 -22 -73 -55 -21 -18 -98 -15 -105 5 -10 26 4 53 24 48 11
-3 28 2 38 11 11 10 25 14 36 10 21 -8 35 11 35 48 0 22 6 29 28 34 50 11 54
13 47 33 -4 15 0 21 17 24 43 8 53 3 53 -28z m185 5 c0 -11 -95 -118 -149
-168 -20 -18 -43 -39 -51 -46 -28 -26 -142 -141 -223 -223 -44 -46 -86 -83
-94 -83 -7 0 -16 -7 -19 -14 -10 -26 -75 -69 -86 -58 -7 7 -2 16 16 27 14 10
26 24 26 31 0 8 8 18 18 21 9 4 21 12 25 20 4 7 15 13 22 13 8 0 15 6 15 14 0
20 56 82 166 184 14 12 28 22 32 22 5 0 29 24 56 53 54 59 140 149 183 189 28
28 63 37 63 18z m-593 -455 c2 -52 1 -55 -22 -55 -14 0 -25 -6 -25 -13 0 -8
-21 -24 -47 -37 -68 -34 -173 -120 -173 -142 0 -11 -7 -18 -20 -18 -17 0 -20
7 -20 40 0 33 3 40 20 40 11 0 20 4 20 9 0 5 12 11 28 13 21 2 27 8 27 28 0
20 -5 25 -25 25 -17 0 -26 -7 -30 -25 l-6 -25 -26 28 c-15 16 -32 27 -40 26
-7 -1 -25 -1 -40 0 -27 1 -27 1 -11 30 22 37 47 52 93 56 23 1 46 11 61 26
l24 24 3 -28 c3 -27 6 -29 43 -25 21 2 39 0 39 -4 0 -5 -10 -9 -22 -9 -13 -1
-27 -2 -33 -4 -5 -1 -14 -3 -19 -3 -5 -1 -3 -8 3 -16 7 -8 11 -21 9 -28 -4
-19 3 -22 28 -14 12 4 24 16 27 26 3 11 14 20 25 20 10 0 34 5 51 11 24 8 29
14 20 20 -11 6 -11 11 -1 21 6 6 12 22 12 35 0 13 6 23 13 23 8 0 13 -19 14
-55z m-613 -135 c19 0 26 -5 26 -19 0 -11 5 -21 11 -23 7 -2 6 -16 -3 -46 -13
-41 -13 -42 -73 -49 -33 -4 -50 -9 -39 -11 12 -2 24 -12 27 -23 3 -10 12 -19
21 -19 22 0 20 -23 -4 -38 -12 -7 -17 -18 -13 -29 4 -11 3 -14 -5 -9 -7 4 -15
1 -18 -8 -3 -9 -13 -16 -20 -16 -8 0 -28 -10 -44 -22 -33 -24 -44 -19 -54 23
-6 26 -5 27 47 25 40 -1 52 2 52 14 0 24 -63 25 -94 2 -26 -19 -27 -19 -86 3
-54 20 -60 26 -57 48 4 35 -28 63 -79 65 -26 2 -38 -1 -34 -8 3 -5 1 -10 -5
-10 -12 0 -2 53 12 58 4 2 8 12 8 23 0 14 7 19 25 19 18 0 25 -5 25 -20 0 -18
7 -20 80 -20 45 0 80 4 80 10 0 5 8 7 18 3 27 -10 62 -45 55 -56 -4 -6 0 -8
11 -4 10 4 20 7 22 7 10 0 2 29 -11 40 -24 20 -18 47 14 58 16 6 32 20 36 31
5 17 10 19 25 11 10 -6 30 -10 44 -10z m-947 -41 c6 -6 21 -16 34 -23 29 -15
29 -29 2 -41 -13 -5 -23 -13 -23 -17 0 -5 -13 -8 -29 -8 -21 0 -32 6 -36 19
-7 22 -35 18 -35 -5 0 -8 -7 -14 -15 -14 -8 0 -15 -4 -15 -10 0 -5 -7 -10 -15
-10 -8 0 -15 -7 -15 -16 0 -12 -10 -15 -45 -13 -24 2 -47 0 -51 -4 -4 -4 -13
5 -21 19 -17 34 -17 34 12 34 14 0 25 -4 25 -10 0 -5 17 -10 38 -10 42 0 102
45 102 77 0 30 65 54 87 32z m1233 -106 c-10 -9 -11 -12 -2 -13 27 0 9 -20
-25 -26 -21 -4 -46 -17 -56 -31 -10 -12 -24 -23 -30 -23 -7 0 -24 -12 -39 -27
-40 -43 -87 -75 -98 -68 -16 10 -12 45 5 45 8 0 15 4 15 9 0 5 11 23 25 39 21
25 23 35 16 55 -11 28 -6 37 20 37 9 0 30 7 45 15 16 9 41 13 55 10 20 -5 28
-1 34 12 7 17 8 17 15 -2 7 -17 9 -15 9 11 1 46 15 51 21 7 3 -26 0 -42 -10
-50z m-1200 -95 c0 -4 33 -8 73 -7 51 1 65 3 47 9 -24 8 -24 8 -2 9 12 1 22 4
22 9 0 4 13 8 29 9 25 2 30 -3 42 -39 l13 -40 47 6 c41 6 47 4 45 -11 -1 -13
5 -17 22 -16 16 2 22 -2 22 -18 0 -16 -4 -19 -20 -14 -15 5 -23 0 -32 -19 -9
-21 -18 -26 -45 -26 -34 0 -63 18 -63 39 0 6 -8 11 -19 11 -25 0 -35 -60 -13
-76 9 -7 13 -18 9 -28 -4 -10 -3 -15 3 -11 5 3 14 -13 20 -35 l11 -40 55 0
c46 0 55 -3 50 -15 -8 -21 3 -45 21 -45 14 0 43 -23 43 -34 0 -3 -9 -6 -20 -6
-11 0 -20 5 -20 10 0 6 -30 10 -70 10 -40 0 -70 4 -70 10 0 6 -13 10 -29 10
-31 0 -85 43 -78 63 2 6 13 13 25 15 12 2 22 9 22 17 0 13 -60 25 -124 25 -28
1 -56 20 -56 38 0 11 40 23 83 27 32 2 56 28 32 33 -8 2 -15 10 -15 18 0 10
-13 14 -45 14 -36 0 -51 5 -69 25 -13 14 -28 25 -35 25 -6 0 -11 17 -11 39 0
39 1 40 38 43 35 3 62 -12 62 -34z m600 -143 c0 -24 23 -65 36 -65 7 0 17 7
21 15 5 8 23 19 39 24 39 11 59 -14 44 -53 -12 -32 -44 -49 -94 -49 -33 0 -45
6 -66 32 -24 29 -31 31 -88 31 -35 0 -62 4 -62 10 0 6 5 10 10 10 18 0 25 2
43 12 10 5 36 10 58 10 31 0 39 4 39 19 0 11 5 19 10 19 6 0 10 -7 10 -15z
m-3109 -477 c0 -205 -3 -381 -6 -391 -4 -9 -11 -14 -16 -11 -10 6 -12 787 -2
798 19 18 23 -51 24 -396z m3372 396 c13 -5 12 -9 -5 -26 -11 -11 -31 -21 -44
-22 -13 0 -26 -8 -29 -16 -5 -16 -68 -60 -86 -60 -6 0 -42 -20 -80 -45 -38
-25 -75 -45 -81 -45 -7 0 -21 -9 -33 -20 -20 -19 -23 -19 -35 -5 -11 13 -9 20
17 45 16 16 42 32 59 36 16 4 36 12 44 19 8 7 25 16 38 20 13 4 51 22 85 42
34 19 74 37 89 40 19 4 28 12 28 24 0 20 8 23 33 13z m-849 -230 c9 -3 16 -11
16 -16 0 -6 -7 -7 -16 -4 -19 7 -94 -11 -94 -23 0 -16 25 -28 69 -34 52 -6 65
-18 56 -46 -5 -17 -15 -21 -46 -21 -21 0 -41 1 -42 3 -9 6 -37 -27 -37 -44 0
-10 -5 -21 -12 -25 -7 -5 -9 -2 -5 8 3 10 -3 24 -15 35 -15 13 -22 15 -25 6
-5 -15 -43 -17 -43 -3 0 6 9 10 20 10 17 0 20 7 20 40 0 22 5 40 10 40 6 0 10
14 10 30 0 17 5 30 10 30 6 0 10 -4 10 -9 0 -5 17 0 37 10 40 20 52 22 77 13z
m-1408 -234 c8 0 14 -7 14 -15 0 -9 9 -15 24 -15 21 0 61 30 40 30 -5 0 -2 5
6 10 20 13 90 13 90 0 0 -5 9 -10 20 -10 11 0 20 -7 20 -15 0 -9 10 -15 26
-15 19 0 25 -4 22 -17 -3 -16 -14 -18 -86 -14 -56 2 -82 0 -82 -8 0 -6 -17
-11 -40 -11 -32 0 -40 4 -40 18 0 30 -22 42 -78 42 -33 0 -51 4 -47 10 3 6 24
10 46 10 l39 0 2 43 1 42 4 -42 c3 -29 9 -43 19 -43z m679 -80 c7 0 9 -15 7
-35 -3 -29 1 -39 22 -56 25 -20 26 -22 9 -34 -17 -13 -16 -14 7 -23 27 -10 63
-10 98 2 16 5 22 3 22 -8 0 -16 -35 -30 -61 -24 -8 2 -13 -2 -12 -8 1 -6 -3
-11 -10 -11 -7 0 -38 -3 -69 -7 -57 -7 -58 -7 -58 18 0 14 5 26 11 26 19 0
-44 54 -65 55 -20 2 -46 30 -46 50 0 19 42 33 68 24 15 -6 21 -5 17 2 -13 20
4 42 28 35 12 -3 27 -6 32 -6z m-715 -293 c19 0 49 4 65 8 24 5 35 2 49 -14
16 -17 31 -21 85 -21 46 0 62 -3 51 -10 -8 -5 -28 -10 -43 -10 -16 0 -26 -4
-22 -9 7 -12 -18 -19 -67 -20 -21 0 -38 4 -38 9 0 6 11 10 25 10 14 0 25 4 25
9 0 12 -100 18 -272 16 -150 -1 -168 5 -95 32 21 7 61 9 117 5 47 -4 101 -6
120 -5z"/>
</g>
</svg>
